<?xml version="1.0" encoding="UTF-8"?><svg id="Lager_2" xmlns="http://www.w3.org/2000/svg" viewBox="0 0 516.79 608.11"><g id="Lager_1-2"><g><path d="M456.41,430.91c5.29,.03,7.95,3.4,9.71,7.69,2.57,6.27,4.11,12.82,4.95,19.55,.41,3.25,.61,6.54,1.35,9.71,.85,3.63,2.72,6.96,5.55,9.37,5.51,4.69,11,9.43,17.78,12.39,3.92,1.71,7.67,3.86,11.33,6.06,4.53,2.73,8.02,6.56,9.14,11.81,1.5,6.98,.07,13.4-5.09,18.69-3.99,4.09-8.7,6.91-14.06,9.01-5.64,2.21-10.9,5.36-16.45,7.85-14.68,6.59-27.23,16.3-39.4,26.58-9.02,7.62-17.76,15.58-26.9,23.06-4.77,3.9-9.92,7.42-15.26,10.49-7.46,4.29-15.71,5.6-24.28,4.67-3.1-.34-6.21-.61-9.29-1.05-5.48-.78-10.52-2.88-15.37-5.44-7.87-4.16-13.86-10.22-17.95-18.13-.45-.87-.96-1.23-1.96-1.35-19.8-2.38-39.64-4.36-59.56-5.33-14.99-.73-29.96-.42-44.84,1.78-9.68,1.43-19.11,3.81-28.09,7.87-1.33,.6-2.25,1.38-3.14,2.36-5.85,6.42-12.61,11.47-21.05,14.01-7.75,2.33-15.6,2.41-23.52,1.06-12.5-2.12-24.41-6.27-36.33-10.4-19.36-6.71-38.9-12.82-58.94-17.13-7.84-1.69-15.82-2.7-23.67-4.29-7.77-1.57-15.37-3.81-22.48-7.42-1.62-.83-3.16-1.91-4.55-3.1-3.97-3.41-4.58-7.83-3.69-12.72,.68-3.74,2.25-7.02,4.23-10.25,2.77-4.52,5.29-9.2,7.69-13.92,3.01-5.91,3.33-12.18,2.33-18.68-1.5-9.8-3.02-19.61-4-29.46-.83-8.31,.39-16.38,5.94-23.15,1.45-1.76,3.18-3.33,4.94-4.79,2.67-2.22,5.77-3.33,9.33-3.28,7.06,.1,14.12-.01,21.18,.05,3.61,.03,6.59-1.65,9.58-3.3,.42-.23,.69-.87,.88-1.37,1.66-4.23,3.2-8.51,4.97-12.69,.96-2.28,2.32-4.39,3.45-6.6,.21-.42,.44-1.11,.25-1.4-2.43-3.77-1.99-7.92-1.73-12.06,.79-12.68,6.55-23.57,12.38-34.44,5.52-10.31,11.18-20.55,16.38-31.03,5.93-11.96,9.6-24.78,12.5-37.73,3.92-17.51,12.22-32.57,23.68-46.15,8.61-10.2,17.14-20.46,25.42-30.93,5.75-7.27,10.74-15.07,13.71-23.97,2.9-8.7,3.97-17.6,3.08-26.75-1.5-15.47-3.08-30.93-4.28-46.42-1.33-17.24-2.16-34.52-1.33-51.81,.71-14.74,3.33-29.09,10.75-42.08,5.6-9.8,12.6-18.5,22.09-24.92,6.2-4.2,13.23-6.35,20.43-7.98,13.97-3.16,28.11-3.95,42.38-3.09,.87,.05,1.73,.15,2.59,.31,9.86,1.86,19.96,2.75,29.21,7.08,8.21,3.84,15.99,8.25,22.99,14.19,8.63,7.33,14.53,16.6,19.93,26.22,2.11,3.75,2.9,8.26,4.22,12.44,3.07,9.72,5.15,19.66,6.42,29.77,1.04,8.26,1.96,16.54,2.77,24.83,1.08,11.14,1.9,22.3,3.04,33.43,.44,4.25,1.64,8.42,2.14,12.67,.91,7.74,2.28,15.38,4.84,22.73,1.34,3.83,3.17,7.51,4.97,11.16,2.22,4.49,4.31,9.09,7.03,13.26,7.39,11.34,15.2,22.41,22.62,33.74,5.46,8.33,12.21,15.62,18.27,23.46,11.81,15.29,21.61,31.73,28.45,49.88,2.61,6.92,5.78,13.64,8.16,20.63,4.05,11.95,6.25,24.32,7.36,36.88,.85,9.64,1.14,19.29,.34,28.95-.77,9.3-2.48,18.42-5.07,27.38-.14,.49-.27,.97-.44,1.57ZM140.1,296.52c-.18,.2-.69,.65-1.04,1.19-2.59,4.04-5.57,7.89-7.63,12.19-5.51,11.45-10.73,23.05-15.85,34.68-3.48,7.91-6.04,16.16-7.76,24.65-1.51,7.46-2.16,14.96-.95,22.55,1.57,9.84,6.22,17.88,13.56,24.59,10.26,9.38,21.2,17.81,32.91,25.3,5.03,3.22,10.17,6.37,14.73,10.18,9.1,7.62,17.84,15.69,25.25,25.01,2.4,3.01,4.44,6.37,6.22,9.79,2,3.84,1.4,7.78-.93,11.36-.94,1.44-2.12,2.75-3.32,4-1.45,1.5-3.03,2.89-4.57,4.3-3.13,2.88-6.74,4.75-11.03,5.21-1.93,.21-2.21,.69-1.34,2.43,1.37,2.74,2.9,5.4,4.21,8.17,1.96,4.17,5.09,7.25,8.79,9.82,8.03,5.56,17.21,7.88,26.7,9.15,11.46,1.53,22.95,1.37,34.42,.04,12.37-1.43,24.27-4.58,35.63-9.69,19.23-8.66,34.59-22.06,47.65-38.41,2.85-3.57,4.41-7.09,3.84-11.67-.51-4.17,.2-8.52-1.96-12.44-.11-.2-.08-.5-.08-.75-.04-7.47-.11-14.93,1.21-22.33,1.13-6.33,3.16-12.26,7.31-17.31,2.26-2.75,4.89-4.94,8.51-5.63,5.07-.97,9.61,.4,13.83,3.15,.4,.26,.8,.53,1.5,1,.48-5.78,1.2-11.22,1.33-16.68,.31-12.37,.31-24.75,.47-37.12,.22-17.45-2.78-34.39-8.11-50.93-2-6.22-4.53-12.24-8.26-17.71-6.25-9.15-12.59-18.26-17.25-28.39-.55-1.2-1.35-2.29-2.02-3.43-.23-.4-.5-.79-.62-1.22-2-7.46-3.89-14.94-3.95-22.74,0-.54-.09-1.14-.34-1.61-4.49-8.6-9.02-17.18-13.53-25.77-.95-1.81-2.01-3.56-2.81-5.43-3.31-7.69-6.53-15.42-9.81-23.12-.49-1.15-1.09-2.24-1.69-3.47-2.84,2.21-5.58,4.26-8.24,6.42-9.4,7.62-19.28,14.47-30.15,19.86-12.97,6.42-26.48,9.52-40.97,7.17-5.55-.9-10.65-2.75-14.89-6.63-3.88-3.55-7.84-7.01-11.77-10.5-.79-.7-1.62-1.35-2.62-2.17-.11,1.33-.16,2.38-.28,3.42-.86,7.31-3.47,14.02-6.78,20.54-5.03,9.92-10.91,19.42-14.76,29.93-2.6,7.1-5.43,14.1-6.48,21.67-.32,2.31-.56,4.79-1.56,6.84-5.48,11.25-11.1,22.43-16.83,33.55-9.37,18.2-17.08,36.99-20.8,57.23-1.64,8.93-2.52,17.92-1.76,27.01,.22,2.6,.52,5.2,.8,8.04-7.49-5.26-11.93-12.13-13.01-21.01-.97-8.01,.1-15.92,1.67-23.76,2.32-11.58,6.42-22.58,11.04-33.39,5.02-11.73,10.76-23.06,19.07-32.89,.71-.84,.27-1.95-.83-2.41-1.26-.52-2.5-1.09-4.07-1.79Zm52.65,272.57c-.19-2.64-.26-5-.53-7.33-1-8.62-3.8-16.7-7.41-24.53-6.57-14.24-15.46-27.01-24.86-39.49-7.74-10.28-15.92-20.25-22.39-31.46-5-8.67-10.07-17.32-15.5-25.72-5.83-9.01-13.58-16.01-23.59-20.31-3.64-1.57-7.14-1.91-11.08-.72-10.24,3.09-15.38,8.83-16.84,19.48-.24,1.76-.72,3.5-1.3,5.18-.66,1.9-1.93,3.37-3.89,4.09-3.65,1.34-7.31,2.59-11.28,2.59-3.73,0-7.47,.05-11.2,.17-5.68,.18-11.35,.45-16.78,2.34-.89,.31-1.89,.74-2.46,1.42-5.52,6.59-8.15,14.15-6.91,22.75,.91,6.26,2.19,12.47,3.32,18.7,1.34,7.41,1.78,14.8-.14,22.2-1.5,5.75-4.22,10.93-7.16,16.03-2.6,4.52-4.86,9.19-6.19,14.29-.79,3.04-.16,5.62,2.07,7.68,1.6,1.48,3.36,2.86,5.25,3.92,5.87,3.26,12.31,4.94,18.84,6.18,7.48,1.42,15.03,2.45,22.5,3.87,16.79,3.19,33.09,8.17,49.23,13.76,13.31,4.61,26.68,9.07,40.02,13.58,9.4,3.18,18.62,2.55,27.65-1.39,6.74-2.94,12.2-7.57,17.03-13.04,1.67-1.89,2.62-4.03,2.93-6.44,.34-2.68,.48-5.39,.69-7.81Zm183.09,33.2c5.88,.14,11.45-1.41,16.98-3.07,5.99-1.8,10.41-6.34,15.66-9.42,4.21-2.48,7.72-6.17,11.48-9.4,8.34-7.16,16.59-14.43,24.99-21.53,9.9-8.38,21.2-14.6,32.72-20.35,5.92-2.95,12.2-5.18,18.26-7.88,4.94-2.2,9.61-4.71,11.65-10.34,2.26-6.24,1.65-11.83-2.97-16.78-4.37-4.67-9.62-8.02-15.59-10.3-5.83-2.22-10.65-6.09-14.57-10.7-5.27-6.19-8.36-13.67-9.82-21.69-1.18-6.48-2.31-12.97-4.29-19.26-.38-1.2-1.05-2.31-1.49-3.5-.36-.97-1.05-1.1-1.92-1.07-3.15,.08-5.47,1.73-7.52,3.93-.9,.97-1.78,1.96-2.74,2.87-4.12,3.89-8.2,7.77-12.03,11.99-5.2,5.73-11.43,10.28-19.04,12.68-5.97,1.88-11.93,1.45-17.91,.49-9.91-1.59-17.24-6.8-21.68-15.91-2.66-5.46-4.22-11.27-5.67-17.12-.18-.71-.45-1.51-.94-1.99-1.1-1.06-2.31-2.02-3.57-2.89-5-3.43-11.44-2.32-14.87,2.69-1.16,1.7-2.04,3.67-2.69,5.63-1.96,5.94-2.38,12.13-2.4,18.32-.07,18.92-.28,37.85,.08,56.76,.14,7.26-1.23,14.24-2.4,21.23-1.02,6.08-1.75,12.11-1.73,18.26,0,1.07,.08,2.17-.11,3.21-1.19,6.84-2.41,13.68-3.7,20.51-.23,1.24-.11,2.26,.54,3.34,8.42,14.13,20.99,20.97,37.28,21.28ZM189.15,183.64l-.28,.05c1.98,3.07,3.61,6.44,6.01,9.14,4.14,4.65,8.62,9.03,13.21,13.25,10.11,9.31,21.97,12.83,35.54,10.05,8.77-1.8,16.85-5.42,24.37-10.1,11.05-6.89,21.83-14.23,32.78-21.3,2.98-1.92,5.51-4.29,7.49-7.15,1.31-1.89,2.51-4.07,2.96-6.29,.47-2.36,1.66-5.37-1.8-6.89-.08-.03-.09-.19-.17-.25-1.89-1.62-3.58-3.61-5.71-4.78-4.38-2.4-8.91-4.55-13.53-6.44-4.95-2.03-10.16-3.43-15.11-5.46-8.94-3.66-17.88-7.27-27.31-9.48-5.09-1.19-10.28-2.34-15.44-.75-14.5,4.46-27.68,11.31-38.57,22.09-2.78,2.75-5.05,5.89-6.24,9.71-.63,2.05-.83,3.9,.91,5.63,.88,.88,1.36,2.15,2.06,3.21,.36,.54,.73,1.15,1.24,1.52,4.12,2.93,8.13,6.06,12.45,8.64,7.91,4.73,16.47,7.4,25.83,6.81,7.31-.46,14.3-2.32,21.08-5.02,13.02-5.18,24.65-12.75,35.83-21.07,.8-.6,1.61-1.19,2.68-1.99v3.72c.52,.29,1.04,.46,1.38,.81,.61,.62,.98,1.26-.07,1.97-11.94,8.12-24.22,15.61-37.79,20.75-6.91,2.62-14.01,4.49-21.43,4.85-10.32,.49-20-2.02-29.01-6.9-4.61-2.5-8.91-5.54-13.36-8.34Zm213.05,217.8c.26-.85,.45-1.47,.64-2.09,6.25-20.46,8.99-41.3,6.55-62.67-1.71-14.95-7.37-28.18-17.37-39.47-5.13-5.79-11.22-10.1-18.92-11.81-1.1-.25-2.53,.7-2.93,1.99-.38,1.21,0,1.86,1.27,2.42,11.1,4.95,19.63,12.78,24.77,23.8,5.22,11.2,7.56,23.15,7.96,35.5,.6,18.33-3.38,35.81-9.7,52.86-.2,.54-.75,1.09-1.28,1.33-3.75,1.74-7.09,4.06-10.08,6.89-4.44,4.18-7.91,9.09-10.75,14.45-.63,1.19-.4,2.71,.43,3.19,1.3,.75,1.85-.35,2.49-1.08,3.02-3.45,5.97-6.96,9.03-10.39,5.46-6.12,12.45-8.99,20.54-8.99,9.35,0,18.49,1.21,27.31,4.73,5.96,2.38,11.26,5.27,14.45,11.14,1.39,2.57,3.88,4.49,4.48,7.55,.05,.28,.25,.63,.48,.76,.62,.34,1.4,.92,1.92,.76,.48-.15,.97-1.1,1.02-1.73,.27-3.71-.95-7.05-2.94-10.12-3.51-5.4-8.2-9.47-14.04-12.23-8.37-3.96-17.3-5.35-26.44-5.92-2.89-.18-5.77-.58-8.87-.9Zm-100.63-246.75c1.05-6.16,2.14-12.03,3.03-17.92,1.38-9.17,1.38-18.32-.47-27.46-1.85-9.1-6.79-15.44-15.91-17.98-7.03-1.95-13.99-1.52-20.67,1.51-2.17,.99-4.75,1.85-6.17,3.58-3.22,3.91-5.71,8.43-6.02,13.68-.55,9.62,1.22,18.82,5.48,27.5,.13,.27,.24,.68,.46,.77,1.85,.76,3.72,1.46,5.48,2.14-.46-1.67-1.22-3.23-1.24-4.79-.08-4.9-.27-9.85,.3-14.69,.85-7.22,5.21-11.9,12.09-14.18,2.19-.73,4.49-.86,6.64-.08,5.54,2.01,10.1,5.1,12.19,11.07,1.96,5.62,3.41,11.23,2.44,17.25-1.05,6.49-4.21,11.21-10.74,13.22-.27,.08-.53,.23-.79,.35l-.12,.43c1.34,.52,2.65,1.35,4.03,1.48,2.31,.22,4.37,.95,6.34,2.07,1.14,.65,2.28,1.28,3.63,2.03Zm-100.61-5.94c-1.08-.66-1.83-1.1-2.55-1.57-2.97-1.94-5.17-4.54-6.19-7.94-1.89-6.24-1.99-12.64-.71-18.95,.83-4.11,3.64-7.3,6.85-9.87,2.63-2.11,5.9-2.69,9.16-1.67,3.27,1.03,6.21,3.2,7.48,6.2,2.65,6.26,4.29,12.89,4.03,19.82-.02,.58,.05,1.17,.08,1.82l1.75-.09c.14-.77,.04-1.68,.38-1.89,1.56-.96,1.52-2.49,1.57-3.93,.13-4.09,.18-8.17,.19-12.26,0-7.78-2.98-14.32-8.5-19.71-7.65-7.45-20.5-5.23-25.12,4.06-4.25,8.53-5.73,17.49-5.36,26.89,.14,3.66,.85,7.19,2.26,10.58,1.96,4.73,4.92,8.76,8.49,12.27,2.1-1.27,4.05-2.45,6.22-3.76Zm94.55-20.27c-1.91-2.01-2-4.19-2.05-6.39-.09-3.89-3.02-8.05-6.67-9.39-.5-.19-1.22-.19-1.69,.03-1.22,.57-2.36,1.31-3.69,2.07,.69,1.11,1.45,2.34,2.22,3.56,.06,.09,.28,.1,.43,.12,2.39,.29,3.8,1.89,4.82,3.84,.87,1.67,1.49,3.46,2.28,5.17,.18,.39,.58,.91,.94,.96,.98,.13,2,.05,3.41,.05Zm-88.85-10.04c.85,3.4,1.67,6.65,2.5,9.94h3.79c-.07-4.19-.57-8.16-2.78-11.71-1.63-2.63-3.95-4.19-6.73-4.28-.86,.81-1.47,1.35-2.05,1.92-.2,.19-.46,.45-.47,.69-.05,1.1-.02,2.2-.02,3.44h5.76Z"/><path d="M220.78,148.4c.3-1.4,.43-2.58,.8-3.67,.46-1.37,1.31-2.23,2.99-2.35,1.26-.09,2.47-.85,3.72-1.22,.61-.18,1.5-.46,1.86-.18,.5,.4,.88,1.3,.83,1.94-.07,.8-.49,1.69-1.02,2.32-1.43,1.72-2.83,3.54-4.59,4.87-.86,.65-2.5,.49-3.73,.29-.41-.07-.62-1.38-.86-2Z"/><path d="M245.94,150.66c-1.33,.21-2.32-.47-3.1-1.74-.64-1.04-1.58-1.89-2.18-2.95-.64-1.13-1.26-2.35-1.49-3.6-.28-1.58,.62-2.26,2.11-1.7,3.09,1.15,5.69,3,7.31,5.97,1.36,2.5,.42,4.02-2.64,4.02Z"/></g></g></svg>