<?xml version="1.0" encoding="utf-8"?>
<!-- Generator: Adobe Illustrator 26.3.1, SVG Export Plug-In . SVG Version: 6.00 Build 0)  -->
<svg version="1.1" id="Lager_2_00000112631098601130049140000013022930300327753123_"
	 xmlns="http://www.w3.org/2000/svg" xmlns:xlink="http://www.w3.org/1999/xlink" x="0px" y="0px" viewBox="0 0 420.2 428.8"
	 style="enable-background:new 0 0 420.2 428.8;" xml:space="preserve">
<g id="Layer_1">
	<g id="Layer_1-2">
		<g id="_26257872464">
			<path id="path5" d="M187.4,34.4C262.8,22.6,344.8,10.9,420.2,0v208.4c-75.4,0-157.4,1.6-232.8,1.6L187.4,34.4L187.4,34.4
				L187.4,34.4z"/>
			<path id="path7" d="M0,61c57-9.4,118.9-19,177.4-25.3V210c-58.5,0-120.4,0.6-177.4,0.6V61L0,61z"/>
			<path id="path29" d="M0,219.8c57,0,118.9,0.6,177.4-1v174C118.9,385,56.9,377.1,0,369.3V219.8z"/>
			<path id="path31" d="M187.4,219.3c75.4,0,157.4-1,232.8-1v210.4c-75.4-12.5-157.4-21.9-232.8-32.9L187.4,219.3L187.4,219.3z"/>
		</g>
	</g>
</g>
</svg>
